<?xml version="1.0" encoding="utf-8"?>
<!-- Generator: Adobe Illustrator 23.0.6, SVG Export Plug-In . SVG Version: 6.00 Build 0)  -->
<svg version="1.1" id="Layer_1" xmlns="http://www.w3.org/2000/svg" xmlns:xlink="http://www.w3.org/1999/xlink" x="0px" y="0px"
	 viewBox="0 0 512 512" style="enable-background:new 0 0 512 512;" xml:space="preserve">
<style type="text/css">
	.st0{fill:url(#SVGID_1_);}
	.st1{fill:url(#SVGID_3_);}
	.st2{clip-path:url(#SVGID_5_);fill:url(#SVGID_6_);}
	.st3{enable-background:new    ;}
	.st4{fill:#FFFFFF;}
</style>
<linearGradient id="SVGID_1_" gradientUnits="userSpaceOnUse" x1="256" y1="512" x2="256" y2="0" gradientTransform="matrix(1 0 0 -1 0 512)">
	<stop  offset="0" style="stop-color:#61FD7D"/>
	<stop  offset="1" style="stop-color:#2BB826"/>
</linearGradient>
<rect class="st0" width="512" height="512"/>
<g>
	<g>
		<g>
			<linearGradient id="SVGID_3_" gradientUnits="userSpaceOnUse" x1="254.0778" y1="115.8019" x2="266.783" y2="405.4481">
				<stop  offset="0" style="stop-color:#FFEA83"/>
				<stop  offset="8.333001e-02" style="stop-color:#FFDD35"/>
				<stop  offset="1" style="stop-color:#FFA800"/>
			</linearGradient>
			<path id="SVGID_2_" class="st1" d="M217.3,375.7c6.4,5.2,14.3,4.9,20.4,1.6c3.3-2,3.5-9.4,5.1-14.3c0-0.1-0.1-0.4,0-0.6
				c0.4-1.4,0.7-2.7,1.1-4.1c1.1,0.6,2.2,1.4,3.2,2c3.8,1.7,7.8,4.7,11.7,4.7c45.8,0.5,91.8,0.4,137.6,0.9c6.7,0.1,8.8-2.5,9.3-8.4
				c1.4-14.6-2.5-29.5,5.2-44.1c-3-0.2-4.9-0.5-6.8-0.5c-27.4-0.2-54.8-0.6-82.4-0.7c-3.3,0-5.3-0.2-6.2-4.4
				c-1.4-6.9-5.1-7.5-11.1-3.8c-5.7,3.5-11.2,8.4-19.4,4.9c-0.7-9.1-1.6-18.6-2.1-28.3c-1.5-30.8-2.6-61.5-4.1-92.4
				c-0.1-1.6-1-4.3-1.8-4.4c-5.1-0.9-10.5-2.1-15.4-1.2c-1.5,0.2-2,6.5-2.8,10c-0.1,0.5-0.5,1-1.4,2.5c-1.1-2.1-2-3.2-2.2-4.4
				c-1.6-6.5-3.5-12.4-11.2-13.8c-0.7-0.1-1.5-0.9-1.8-1.5c-4.3-7.3-9.6-14.3-12.7-22.1c-3.8-9.8-7.4-11.6-16.8-7.1
				c-2.4,1.2-7.7,1.1-9-0.6c-4.1-4.9-6.8-9.6-14.6-10.9c-6.8-1.1-13.7-3-18.9,1.4c-3.7,3-6.9,6.5-10.4,9.6c-3.1-0.4-6.4-0.9-9.9-1.2
				c-2.4-9.5-8.8-15.8-17.8-19c-5.8-2.1-12-2.7-18.2-3.2c-2.5-0.2-6.5,1-7.4,2.6c-1,2,0.2,5.8,1.7,7.9c3.5,5.2,4.7,16.4,2,22
				c-0.7,1.5-1.2,4.2-0.4,5.1c1.2,1.4,3.7,2,5.7,2.1c2,0.1,4-1,4.7-1.1c1.1,4,2.1,7.3,2.6,9.4c-1.1,6.8-4.7,14.1-2.5,18.3
				c3.6,6.9,8.3,14.9,13.8,19.9c8.9,8,20.4,13.8,34,11.1c7.8-1.6,8.3-0.6,10.1,7.4c1.5,6.8,3.8,13.3,6.4,21.9
				c-6.4,8.6-15.4,17.3-29.5,18.9c-4.2,0.5-8.2,3-12.4,4c-6.5,1.5-4.9,6.8-6,11c-0.2,0.7-0.5,1.6-0.9,2.3c-3.6,5.6-3,11.3-1,17.2
				c1.5,4.1,2.3,8.5,3.7,12.6c1.7,4.4,1.1,8.4-1.4,12.5c-5.4,9.5-10.1,19.3-9.8,30.6c0.1,2.3-0.9,4.7-1.5,6.9
				c-3.7,15.7-3.7,30.1,11.9,40c1.7,1.1,3.1,2.5,4.7,3.7c4.7,3.6,6.4,3.2,7.4-2.6c2-10.2,3.2-20.5,4.7-30.8
				c0.6-4.1,0.9-8.2,1.5-12.9c4.6,2.2,8,3.6,11.4,5.3c3.2,1.7,6.7,3.3,9.8,5.3c6.7,4.3,13.2,1.8,15.2-5.8c0.5-2.1,1.1-4.1,2.1-7.9
				c3.6,4.3,6.2,7.5,8.9,10.6c1.7,1.8,3.7,3.7,5.9,4.8C211.5,375.1,214.1,375,217.3,375.7z"/>
		</g>
		<g>
			<g>
				<defs>
					<path id="SVGID_4_" d="M217.3,375.7c6.4,5.2,14.3,4.9,20.4,1.6c3.3-2,3.5-9.4,5.1-14.3c0-0.1-0.1-0.4,0-0.6
						c0.4-1.4,0.7-2.7,1.1-4.1c1.1,0.6,2.2,1.4,3.2,2c3.8,1.7,7.8,4.7,11.7,4.7c45.8,0.5,91.8,0.4,137.6,0.9
						c6.7,0.1,8.8-2.5,9.3-8.4c1.4-14.6-2.5-29.5,5.2-44.1c-3-0.2-4.9-0.5-6.8-0.5c-27.4-0.2-54.8-0.6-82.4-0.7
						c-3.3,0-5.3-0.2-6.2-4.4c-1.4-6.9-5.1-7.5-11.1-3.8c-5.7,3.5-11.2,8.4-19.4,4.9c-0.7-9.1-1.6-18.6-2.1-28.3
						c-1.5-30.8-2.6-61.5-4.1-92.4c-0.1-1.6-1-4.3-1.8-4.4c-5.1-0.9-10.5-2.1-15.4-1.2c-1.5,0.2-2,6.5-2.8,10
						c-0.1,0.5-0.5,1-1.4,2.5c-1.1-2.1-2-3.2-2.2-4.4c-1.6-6.5-3.5-12.4-11.2-13.8c-0.7-0.1-1.5-0.9-1.8-1.5
						c-4.3-7.3-9.6-14.3-12.7-22.1c-3.8-9.8-7.4-11.6-16.8-7.1c-2.4,1.2-7.7,1.1-9-0.6c-4.1-4.9-6.8-9.6-14.6-10.9
						c-6.8-1.1-13.7-3-18.9,1.4c-3.7,3-6.9,6.5-10.4,9.6c-3.1-0.4-6.4-0.9-9.9-1.2c-2.4-9.5-8.8-15.8-17.8-19
						c-5.8-2.1-12-2.7-18.2-3.2c-2.5-0.2-6.5,1-7.4,2.6c-1,2,0.2,5.8,1.7,7.9c3.5,5.2,4.7,16.4,2,22c-0.7,1.5-1.2,4.2-0.4,5.1
						c1.2,1.4,3.7,2,5.7,2.1c2,0.1,4-1,4.7-1.1c1.1,4,2.1,7.3,2.6,9.4c-1.1,6.8-4.7,14.1-2.5,18.3c3.6,6.9,8.3,14.9,13.8,19.9
						c8.9,8,20.4,13.8,34,11.1c7.8-1.6,8.3-0.6,10.1,7.4c1.5,6.8,3.8,13.3,6.4,21.9c-6.4,8.6-15.4,17.3-29.5,18.9
						c-4.2,0.5-8.2,3-12.4,4c-6.5,1.5-4.9,6.8-6,11c-0.2,0.7-0.5,1.6-0.9,2.3c-3.6,5.6-3,11.3-1,17.2c1.5,4.1,2.3,8.5,3.7,12.6
						c1.7,4.4,1.1,8.4-1.4,12.5c-5.4,9.5-10.1,19.3-9.8,30.6c0.1,2.3-0.9,4.7-1.5,6.9c-3.7,15.7-3.7,30.1,11.9,40
						c1.7,1.1,3.1,2.5,4.7,3.7c4.7,3.6,6.4,3.2,7.4-2.6c2-10.2,3.2-20.5,4.7-30.8c0.6-4.1,0.9-8.2,1.5-12.9c4.6,2.2,8,3.6,11.4,5.3
						c3.2,1.7,6.7,3.3,9.8,5.3c6.7,4.3,13.2,1.8,15.2-5.8c0.5-2.1,1.1-4.1,2.1-7.9c3.6,4.3,6.2,7.5,8.9,10.6
						c1.7,1.8,3.7,3.7,5.9,4.8C211.5,375.1,214.1,375,217.3,375.7z"/>
				</defs>
				<clipPath id="SVGID_5_">
					<use xlink:href="#SVGID_4_"  style="overflow:visible;"/>
				</clipPath>
				<linearGradient id="SVGID_6_" gradientUnits="userSpaceOnUse" x1="237.901" y1="81.1302" x2="254.0313" y2="448.8614">
					<stop  offset="0" style="stop-color:#FFEA83"/>
					<stop  offset="8.333001e-02" style="stop-color:#FFDD35"/>
					<stop  offset="1" style="stop-color:#FFA800"/>
				</linearGradient>
				<path class="st2" d="M273.6,440.6c-75.4,0-150.1,0-224.8,0c0-117,0-234.1,0-351.1c131.4,0,263,0,394.4,0c0,117,0,234.1,0,351.1
					C386.9,440.6,330.5,440.6,273.6,440.6"/>
			</g>
		</g>
	</g>
</g>
<g class="st3">
	<path class="st4" d="M68.7,310.5l45.5-67.7l-2.9-52.5h26.1l0.5,21.5c0,8.3-0.1,13.1-0.4,14.6c1-2.4,3.3-6.8,7-12.9l13.4-23.2H188
		l-40.8,61.1l3.6,59.1h-25.6l-0.7-29.8c0-8.3,0.1-13.1,0.4-14.6c-0.9,2.1-3.3,6.3-7.1,12.7l-19.7,31.7H68.7z"/>
	<path class="st4" d="M166.4,304.3c-5-5.5-8.3-13.1-9.8-22.4l22.5-9.8c1.6,6.8,3.2,11.7,4.9,14.6c1.7,2.9,3.8,4.4,6.3,4.4
		c2.4,0,4.1-1.2,5.4-3.7c1.2-2.4,1.8-5.4,1.8-8.7c0-5-1.5-10.3-4.6-15.7l-4.6-8.3c-3.5-6.3-6.1-11.9-8-16.6
		c-1.8-4.8-2.7-9.4-2.7-13.8c0-6.4,1.5-12.4,4.6-17.9c3-5.5,7.2-9.9,12.6-13.2c5.4-3.3,11.3-4.9,17.9-4.9c8.7,0,15.3,2.4,20,7.4
		c4.7,5,7.9,12,9.6,21.3l-22.5,9.1c-1.1-5.8-2.4-10.1-3.7-12.5c-1.3-2.4-3.1-3.8-5.4-3.8c-2.2,0-3.8,0.9-4.9,2.7
		c-1.1,1.8-1.7,3.9-1.7,6.1c0,3.8,1.9,9,5.5,15.9l4.7,8.8c3,5.6,5.5,10.8,7.1,15.6c1.7,4.7,2.5,9.5,2.5,14.2
		c0,6.9-1.6,13.4-4.9,19.4c-3.3,6-7.7,10.9-13.4,14.6c-5.6,3.7-11.9,5.5-18.8,5.5C178.4,312.7,171.5,309.9,166.4,304.3z"/>
	<path class="st4" d="M238.3,236.9h37.1l-7.8,22.9h-37.1L238.3,236.9z"/>
	<path class="st4" d="M278.1,304c-4.5-5.7-6.8-13.4-6.8-23.3c0-10.6,2.3-22.7,6.8-36.2c6.1-18.7,13.5-32.8,22.4-42.2
		s18.7-14.1,29.6-14.1c9.2,0,16.2,2.7,20.7,8c4.5,5.4,6.9,12.8,7.1,22.3l-23,8.3c-0.5-5.5-1.2-9.8-2.4-12.6
		c-1.1-2.9-2.8-4.3-5.1-4.3c-3.5,0-7,2.9-10.3,8.7c-3.4,5.8-7.5,16-12.3,30.4c-5.1,14.9-7.6,25.9-7.6,33c0,5.7,1.8,8.7,5.3,8.7
		c2.4,0,4.7-1.2,7.1-3.7c2.4-2.4,5.4-6.9,9-13.3l19.9,9.5c-4.3,8.5-9.7,15.5-16.2,21.1c-6.5,5.5-14.1,8.4-22.8,8.4
		C289.7,312.6,282.6,309.7,278.1,304z"/>
	<path class="st4" d="M416.6,190.3h26.7l-40,120.2h-26.7l17.3-51.8h-18l-17.3,51.8h-26.7l40-120.2h26.7l-14.9,45h18L416.6,190.3z"/>
</g>
</svg>
