<?xml version="1.0" encoding="utf-8"?>
<!-- Generator: Adobe Illustrator 23.0.6, SVG Export Plug-In . SVG Version: 6.00 Build 0)  -->
<svg version="1.1" id="Layer_1" xmlns="http://www.w3.org/2000/svg" xmlns:xlink="http://www.w3.org/1999/xlink" x="0px" y="0px"
	 viewBox="0 0 512 512" style="enable-background:new 0 0 512 512;" xml:space="preserve">
<style type="text/css">
	.st0{fill-rule:evenodd;clip-rule:evenodd;fill:url(#SVGID_1_);}
	.st1{fill:#FCB336;}
	.st2{clip-path:url(#SVGID_4_);fill:#FCB336;}
	.st3{fill:#FFFFFF;}
</style>
<title>wa</title>
<linearGradient id="SVGID_1_" gradientUnits="userSpaceOnUse" x1="1969.7896" y1="2327.2632" x2="1969.7896" y2="5010.3232" gradientTransform="matrix(0.19 0 0 0.19 -118.26 -442.18)">
	<stop  offset="0" style="stop-color:#61FD7D"/>
	<stop  offset="1" style="stop-color:#2BB826"/>
</linearGradient>
<path class="st0" d="M512,382.1c0,2.8-0.1,8.9-0.3,13.6c-0.4,11.5-1.3,26.3-2.7,33.1c-1.8,9.6-5,18.9-9.3,27.7
	c-9.5,18.7-24.7,33.9-43.4,43.4c-8.8,4.3-18.2,7.4-27.9,9.3c-6.7,1.4-21.4,2.2-32.8,2.6c-4.7,0.2-10.8,0.3-13.6,0.3H130
	c-2.8,0-8.9-0.1-13.6-0.3c-11.5-0.4-26.3-1.3-33.1-2.7c-9.6-1.9-18.9-5-27.7-9.3c-18.7-9.5-34-24.7-43.4-43.5
	c-4.3-8.8-7.4-18.2-9.3-27.9c-1.4-6.7-2.2-21.4-2.7-32.8C0.1,390.9,0,384.8,0,382V129.9c0-2.8,0.1-8.9,0.3-13.6
	C0.7,104.9,1.6,90,3,83.3c1.8-9.6,5-18.9,9.3-27.7C21.8,36.8,37,21.7,55.7,12.2c8.8-4.3,18.2-7.4,27.9-9.3
	c6.7-1.4,21.4-2.2,32.8-2.7C121.1,0.1,127.2,0,130,0h252.1c2.8,0,8.9,0.1,13.6,0.3c11.5,0.5,26.3,1.4,33,2.8
	c9.6,1.8,18.9,5,27.7,9.3c18.7,9.5,33.9,24.7,43.4,43.4c4.3,8.8,7.4,18.2,9.3,27.9c1.4,6.7,2.2,21.4,2.6,32.8
	c0.2,4.7,0.3,10.8,0.3,13.6V382.1z"/>
<g>
	<g>
		<path id="SVGID_2_" class="st1" d="M210.6,396.3c8.2,6.6,18.3,6.3,26,2c4.3-2.4,4.5-11.9,6.5-18.3c0.1-0.2-0.1-0.5-0.1-0.8
			c0.4-1.8,0.9-3.5,1.4-5.3c1.4,0.8,2.7,1.8,4.2,2.4c5,2.2,10,6,15,6c58.8,0.6,117.5,0.5,176.3,1.1c8.5,0.1,11.2-3.2,11.9-10.8
			c1.8-18.6-3.3-37.8,6.6-56.6c-3.8-0.3-6.3-0.6-8.8-0.6c-35.2-0.4-70.3-0.7-105.5-0.9c-4.3,0-6.8-0.3-7.8-5.7
			c-1.8-8.9-6.4-9.8-14.2-4.9c-7.2,4.5-14.3,10.9-24.8,6.3c-0.9-11.7-2-23.9-2.6-36.2c-1.8-39.4-3.4-78.8-5.2-118.3
			c-0.1-2-1.2-5.5-2.4-5.7c-6.5-1.1-13.3-2.5-19.6-1.5c-1.9,0.3-2.5,8.3-3.7,12.7c-0.2,0.6-0.6,1.2-1.7,3.3
			c-1.3-2.6-2.5-4.1-2.8-5.7c-1.9-8.3-4.4-15.9-14.3-17.8c-0.9-0.2-1.9-1-2.4-1.9c-5.6-9.4-12.4-18.3-16.3-28.3
			c-4.9-12.5-9.6-15-21.6-9.1c-3.1,1.6-9.9,1.4-11.6-0.8c-5.2-6.3-8.6-12.3-18.6-13.9c-8.6-1.4-17.5-3.8-24.2,1.6
			c-4.7,3.9-8.9,8.3-13.2,12.4c-4-0.5-8.2-1-12.6-1.6c-3.1-12.1-11.3-20.3-22.9-24.4c-7.3-2.6-15.4-3.5-23.2-4.2
			c-3.2-0.3-8.4,1.2-9.5,3.4c-1.2,2.4,0.3,7.3,2.1,10.1c4.5,6.6,6,21.1,2.5,28.2c-0.9,1.9-1.5,5.5-0.5,6.5c1.6,1.7,4.7,2.5,7.2,2.6
			s5.1-1.2,6-1.4c1.4,5.1,2.6,9.4,3.4,12.1c-1.5,8.7-6.1,18-3.2,23.5c4.6,9,10.6,19.1,17.7,25.5c11.4,10.3,26.2,17.7,43.5,14.1
			c10-2.1,10.7-0.7,12.9,9.6c1.9,8.7,4.9,17.2,8.2,28.1c-8.2,11.1-19.7,22.2-37.9,24.1c-5.4,0.6-10.4,3.8-15.8,5
			c-8.3,1.8-6.4,8.7-7.7,14.1c-0.2,1-0.6,2-1.1,2.9c-4.7,7.1-3.8,14.4-1.2,22c1.8,5.3,2.9,10.9,4.8,16.2c2.1,5.7,1.3,10.8-1.6,16.1
			c-6.9,12.2-13,24.7-12.5,39.3c0.1,3-1.1,6-1.8,9c-4.8,20-4.8,38.6,15.2,51.3c2.1,1.4,3.9,3.3,6,4.8c6.1,4.6,8.2,4.2,9.6-3.5
			c2.5-13.1,4.1-26.3,6-39.4c0.7-5.2,1.1-10.4,1.8-16.5c5.9,2.7,10.3,4.6,14.6,6.7c4.2,2.1,8.5,4.3,12.5,6.8
			c8.4,5.5,17,2.3,19.3-7.4c0.6-2.6,1.3-5.2,2.6-10.2c4.7,5.6,7.8,9.7,11.4,13.5c2.2,2.4,4.7,4.8,7.6,6.2
			C203.1,395.5,206.4,395.3,210.6,396.3z"/>
	</g>
	<g>
		<defs>
			<path id="SVGID_3_" d="M210.6,396.3c8.2,6.6,18.3,6.3,26,2c4.3-2.4,4.5-11.9,6.5-18.3c0.1-0.2-0.1-0.5-0.1-0.8
				c0.4-1.8,0.9-3.5,1.4-5.3c1.4,0.8,2.7,1.8,4.2,2.4c5,2.2,10,6,15,6c58.8,0.6,117.5,0.5,176.3,1.1c8.5,0.1,11.2-3.2,11.9-10.8
				c1.8-18.6-3.3-37.8,6.6-56.6c-3.8-0.3-6.3-0.6-8.8-0.6c-35.2-0.4-70.3-0.7-105.5-0.9c-4.3,0-6.8-0.3-7.8-5.7
				c-1.8-8.9-6.4-9.8-14.2-4.9c-7.2,4.5-14.3,10.9-24.8,6.3c-0.9-11.7-2-23.9-2.6-36.2c-1.8-39.4-3.4-78.8-5.2-118.3
				c-0.1-2-1.2-5.5-2.4-5.7c-6.5-1.1-13.3-2.5-19.6-1.5c-1.9,0.3-2.5,8.3-3.7,12.7c-0.2,0.6-0.6,1.2-1.7,3.3
				c-1.3-2.6-2.5-4.1-2.8-5.7c-1.9-8.3-4.4-15.9-14.3-17.8c-0.9-0.2-1.9-1-2.4-1.9c-5.6-9.4-12.4-18.3-16.3-28.3
				c-4.9-12.5-9.6-15-21.6-9.1c-3.1,1.6-9.9,1.4-11.6-0.8c-5.2-6.3-8.6-12.3-18.6-13.9c-8.6-1.4-17.5-3.8-24.2,1.6
				c-4.7,3.9-8.9,8.3-13.2,12.4c-4-0.5-8.2-1-12.6-1.6c-3.1-12.1-11.3-20.3-22.9-24.4c-7.3-2.6-15.4-3.5-23.2-4.2
				c-3.2-0.3-8.4,1.2-9.5,3.4c-1.2,2.4,0.3,7.3,2.1,10.1c4.5,6.6,6,21.1,2.5,28.2c-0.9,1.9-1.5,5.5-0.5,6.5c1.6,1.7,4.7,2.5,7.2,2.6
				s5.1-1.2,6-1.4c1.4,5.1,2.6,9.4,3.4,12.1c-1.5,8.7-6.1,18-3.2,23.5c4.6,9,10.6,19.1,17.7,25.5c11.4,10.3,26.2,17.7,43.5,14.1
				c10-2.1,10.7-0.7,12.9,9.6c1.9,8.7,4.9,17.2,8.2,28.1c-8.2,11.1-19.7,22.2-37.9,24.1c-5.4,0.6-10.4,3.8-15.8,5
				c-8.3,1.8-6.4,8.7-7.7,14.1c-0.2,1-0.6,2-1.1,2.9c-4.7,7.1-3.8,14.4-1.2,22c1.8,5.3,2.9,10.9,4.8,16.2c2.1,5.7,1.3,10.8-1.6,16.1
				c-6.9,12.2-13,24.7-12.5,39.3c0.1,3-1.1,6-1.8,9c-4.8,20-4.8,38.6,15.2,51.3c2.1,1.4,3.9,3.3,6,4.8c6.1,4.6,8.2,4.2,9.6-3.5
				c2.5-13.1,4.1-26.3,6-39.4c0.7-5.2,1.1-10.4,1.8-16.5c5.9,2.7,10.3,4.6,14.6,6.7c4.2,2.1,8.5,4.3,12.5,6.8
				c8.4,5.5,17,2.3,19.3-7.4c0.6-2.6,1.3-5.2,2.6-10.2c4.7,5.6,7.8,9.7,11.4,13.5c2.2,2.4,4.7,4.8,7.6,6.2
				C203.1,395.5,206.4,395.3,210.6,396.3z"/>
		</defs>
		<clipPath id="SVGID_4_">
			<use xlink:href="#SVGID_3_"  style="overflow:visible;"/>
		</clipPath>
		<path class="st2" d="M282.6,479.3c-96.5,0-192.3,0-288.1,0c0-149.9,0-299.9,0-449.8c168.4,0,336.9,0,505.3,0
			c0,149.9,0,299.9,0,449.8C427.7,479.3,355.5,479.3,282.6,479.3"/>
	</g>
</g>
<g>
	<path class="st3" d="M70.4,323.9l28.4-80.1l-25-71.5h36l8.1,27.4c2.8,10.1,4.4,16,4.5,17.7c0.3-2.5,1.9-8.4,4.7-17.7l8.1-27.4h35.5
		l-25.4,71.5l28.6,80.1h-35.5l-11.5-37.8c-2.9-9.3-4.5-15.3-4.7-17.7c-0.1,2.1-1.7,8-4.9,17.5l-12.5,38L70.4,323.9L70.4,323.9z"/>
	<path class="st3" d="M185.6,317.8c-7.1-6-13.2-15.5-18.4-28.6l27.1-13.9c3.5,8.3,6.5,14.4,9.5,18.4c2.9,4,6,6,9.1,6
		c2.1,0,4-1.1,5.5-3.1c1.5-2,2.3-4.9,2.3-8.7c0-4-1.1-7.7-3.3-11.5c-2.3-3.6-5.6-7.6-10.1-11.9l-8.8-8.3
		c-6.7-6.4-11.9-11.7-15.6-15.9c-3.7-4.1-6.7-8.8-8.9-13.6c-2.3-4.9-3.5-10.3-3.5-15.9c0-7.6,1.6-14.4,4.8-20.7
		c3.2-6.3,7.7-11.2,13.7-14.9c6-3.7,12.9-5.6,20.7-5.6c10.9,0,19.7,2.9,26.4,8.9s12.4,14.8,17.2,26.4L226.7,218
		c-3.3-7.7-6.1-13.1-8.7-16.3c-2.5-3.2-5.2-4.8-8-4.8c-2.3,0-4.1,0.8-5.5,2.5c-1.3,1.7-2,4.3-2,7.7c0,2.9,1.2,6,3.6,9.2
		c2.4,3.1,5.9,6.8,10.4,11.1l9.2,8.8c9.1,8.5,15.9,16.3,20.3,23.1c4.4,6.8,6.7,14.8,6.7,24.2c0,8-1.7,15.3-5.2,22
		c-3.5,6.7-8.3,12-14.5,15.7c-6.1,3.9-13.1,5.7-20.8,5.7C201.5,326.7,192.7,323.7,185.6,317.8z"/>
	<path class="st3" d="M267.8,306.6c-8-13.6-12-33.1-12-58.4c0-25.4,4-44.8,12-58.4c8-13.6,20-20.4,36-20.4
		c21.2,0,35.6,12.7,43.1,38.2l-27.8,11.3c-2.9-8.5-5.6-14.4-7.7-17.5c-2.1-3.1-4.5-4.7-7.2-4.7c-3.5,0-6.1,1.6-8,4.8
		c-1.9,3.2-3.3,8.5-4.1,15.9c-0.8,7.3-1.3,17.6-1.3,30.7c0,13.1,0.4,23.4,1.3,30.7c0.8,7.3,2.3,12.5,4.1,15.7c1.9,3.2,4.5,4.8,8,4.8
		c2.8,0,5.3-1.5,7.3-4.5c2-3.1,4.5-8.8,7.6-17.3l27.8,11.3c-7.6,25.5-21.9,38.2-43.1,38.2C287.8,326.9,275.8,320.1,267.8,306.6z"/>
	<path class="st3" d="M407.8,172.3h33.8v151.6h-33.8v-65.4h-22.7v65.4h-33.8V172.3h33.8v56.8h22.7V172.3z"/>
</g>
</svg>
