<?xml version="1.0" encoding="utf-8"?>
<!-- Generator: Adobe Illustrator 23.0.6, SVG Export Plug-In . SVG Version: 6.00 Build 0)  -->
<svg version="1.1" id="Layer_1" xmlns="http://www.w3.org/2000/svg" xmlns:xlink="http://www.w3.org/1999/xlink" x="0px" y="0px"
	 viewBox="0 0 179.3 22.4" style="enable-background:new 0 0 179.3 22.4;" xml:space="preserve">
<style type="text/css">
	.st0{fill:url(#SVGID_1_);}
	.st1{fill:url(#SVGID_2_);}
	.st2{fill:url(#SVGID_3_);}
	.st3{fill:url(#SVGID_4_);}
	.st4{fill:url(#SVGID_5_);}
	.st5{fill-rule:evenodd;clip-rule:evenodd;fill:url(#SVGID_6_);}
</style>
<g>
	<path d="M26,21.7l8-11.9l-0.5-9.2h4.6l0.1,3.8c0,1.4,0,2.3-0.1,2.6c0.2-0.4,0.6-1.2,1.2-2.3l2.3-4.1h5.3l-7.2,10.7l0.6,10.4h-4.4
		l-0.1-5.2c0-1.4,0-2.3,0.1-2.6c-0.2,0.4-0.6,1.1-1.2,2.2l-3.5,5.6H26z"/>
	<path d="M43.1,20.6c-0.9-1-1.5-2.3-1.7-3.9l4-1.7c0.3,1.2,0.6,2,0.9,2.6c0.3,0.5,0.7,0.8,1.1,0.8c0.4,0,0.7-0.2,0.9-0.6
		c0.2-0.4,0.3-0.9,0.3-1.5c0-0.9-0.3-1.8-0.8-2.8L47,12c-0.6-1.1-1.1-2.1-1.4-2.9c-0.3-0.8-0.5-1.6-0.5-2.4c0-1.1,0.3-2.2,0.8-3.1
		c0.5-1,1.3-1.7,2.2-2.3c0.9-0.6,2-0.9,3.1-0.9c1.5,0,2.7,0.4,3.5,1.3s1.4,2.1,1.7,3.7l-4,1.6c-0.2-1-0.4-1.8-0.6-2.2
		C51.7,4.3,51.3,4,50.9,4c-0.4,0-0.7,0.2-0.9,0.5s-0.3,0.7-0.3,1.1c0,0.7,0.3,1.6,1,2.8l0.8,1.5c0.5,1,1,1.9,1.2,2.7
		c0.3,0.8,0.4,1.7,0.4,2.5c0,1.2-0.3,2.3-0.9,3.4c-0.6,1.1-1.4,1.9-2.3,2.6c-1,0.6-2.1,1-3.3,1C45.2,22.1,44,21.6,43.1,20.6z"/>
	<path d="M55.8,8.8h6.5l-1.4,4h-6.5L55.8,8.8z"/>
	<path d="M62.7,20.5c-0.8-1-1.2-2.4-1.2-4.1c0-1.9,0.4-4,1.2-6.4c1.1-3.3,2.4-5.8,3.9-7.4c1.6-1.6,3.3-2.4,5.3-2.4
		c1.6,0,2.8,0.5,3.6,1.4c0.8,0.9,1.2,2.2,1.2,3.9l-4,1.5c-0.1-1-0.2-1.7-0.4-2.2C72.1,4.3,71.8,4,71.4,4c-0.6,0-1.2,0.5-1.8,1.5
		s-1.3,2.8-2.2,5.3c-0.9,2.6-1.3,4.5-1.3,5.8c0,1,0.3,1.5,0.9,1.5c0.4,0,0.8-0.2,1.2-0.6s0.9-1.2,1.6-2.3l3.5,1.7
		c-0.8,1.5-1.7,2.7-2.8,3.7s-2.5,1.5-4,1.5C64.8,22,63.5,21.5,62.7,20.5z"/>
	<path d="M87,0.6h4.7l-7,21.1H80l3-9.1h-3.1l-3,9.1h-4.7l7-21.1h4.7l-2.6,7.9h3.1L87,0.6z"/>
</g>
<path d="M102.5,16c-0.6,0.6-1.1,1.3-1.5,2h6.5l-1.3,3.9H94.8l0.7-2.1c0.5-1.4,1-2.6,1.5-3.6c0.6-1,1.3-1.8,2.1-2.6
	c0.8-0.8,1.9-1.6,3.2-2.6c1.5-1.1,2.7-2.1,3.6-3c0.9-0.9,1.3-1.9,1.3-2.8c0-0.7-0.3-1-0.9-1c-0.5,0-1,0.2-1.5,0.7
	c-0.6,0.5-1.2,1.3-2,2.3l-3.3-1.9c1-1.7,2.2-2.9,3.4-3.7c1.3-0.8,2.6-1.2,3.9-1.2c1.5,0,2.6,0.4,3.5,1.2s1.3,1.9,1.3,3.2
	s-0.3,2.5-0.9,3.5s-1.3,2-2.3,2.8s-2.2,1.8-3.8,2.9C103.9,14.8,103.1,15.4,102.5,16z"/>
<path d="M110.9,20.8c-0.8-0.9-1.1-2.2-1.1-3.8c0-1.8,0.4-4,1.3-6.7c1-3.2,2.2-5.6,3.7-7.3c1.4-1.7,3.1-2.6,4.9-2.6
	c1.6,0,2.8,0.5,3.6,1.4c0.8,0.9,1.1,2.3,1.1,3.9c0,1.8-0.4,4-1.3,6.6c-1,3.2-2.2,5.6-3.7,7.3c-1.4,1.7-3.1,2.6-4.9,2.6
	C112.8,22.2,111.6,21.8,110.9,20.8z M116.5,16.9c0.6-1,1.2-2.8,2.1-5.3c0.5-1.5,0.8-2.7,1.1-3.7c0.3-1,0.4-1.8,0.4-2.5
	c0-0.8-0.2-1.2-0.7-1.2s-1,0.5-1.6,1.6c-0.6,1-1.2,2.8-2.1,5.3c-0.5,1.5-0.8,2.7-1.1,3.7c-0.3,1-0.4,1.8-0.4,2.4
	c0,0.8,0.2,1.2,0.7,1.2C115.4,18.4,115.9,17.9,116.5,16.9z"/>
<linearGradient id="SVGID_1_" gradientUnits="userSpaceOnUse" x1="133.7427" y1="3.122" x2="124.1293" y2="19.773" gradientTransform="matrix(1 0 0 -1 0 24)">
	<stop  offset="4.049120e-07" style="stop-color:#00FB00"/>
	<stop  offset="0.1883" style="stop-color:#0AF600"/>
	<stop  offset="0.8436" style="stop-color:#FF7101"/>
</linearGradient>
<path class="st0" d="M128.2,16c-0.6,0.6-1.1,1.3-1.5,2h6.5l-1.3,3.8h-11.3l0.7-2.1c0.5-1.4,1-2.6,1.5-3.6c0.6-1,1.3-1.8,2.1-2.6
	c0.8-0.8,1.9-1.6,3.2-2.6c1.5-1.1,2.7-2.1,3.6-3c0.9-0.9,1.3-1.8,1.3-2.8c0-0.7-0.3-1-0.9-1c-0.5,0-1,0.2-1.5,0.7
	c-0.6,0.5-1.2,1.3-2,2.3l-3.4-1.8c1-1.7,2.2-2.9,3.4-3.7c1.3-0.8,2.6-1.2,3.9-1.2c1.5,0,2.6,0.4,3.5,1.2c0.9,0.8,1.3,1.9,1.3,3.2
	s-0.3,2.5-0.9,3.5c-0.6,1-1.3,2-2.3,2.8s-2.2,1.8-3.8,2.9C129.6,14.8,128.8,15.4,128.2,16z"/>
<linearGradient id="SVGID_2_" gradientUnits="userSpaceOnUse" x1="147.1741" y1="5.2846" x2="138.6676" y2="20.0183" gradientTransform="matrix(1 0 0 -1 0 24)">
	<stop  offset="4.049120e-07" style="stop-color:#00FB00"/>
	<stop  offset="0.1883" style="stop-color:#0AF600"/>
	<stop  offset="0.8436" style="stop-color:#FF7101"/>
</linearGradient>
<path class="st1" d="M149.4,0.8L147,3.3c-1.9,2-3.4,3.8-4.6,5.5c0.6-0.4,1.2-0.6,1.8-0.6c1.1,0,1.8,0.4,2.4,1.2
	c0.5,0.8,0.8,1.8,0.8,3c0,1-0.2,2.1-0.5,3.2c-0.7,2.1-1.7,3.7-3,4.9c-1.4,1.2-2.8,1.8-4.4,1.8c-1.6,0-2.8-0.5-3.6-1.4
	c-0.8-0.9-1.2-2.1-1.2-3.7c0-1.1,0.2-2.3,0.6-3.6c0.7-2.1,1.7-4.1,3.2-6.1c1.4-2,3.1-3.9,4.9-5.8l1-1L149.4,0.8L149.4,0.8z
	 M142.7,12.9c0-0.8-0.3-1.3-0.8-1.3c-0.4,0-0.8,0.3-1.3,0.8c-0.4,0.5-0.8,1.3-1.1,2.3c-0.3,0.8-0.4,1.6-0.4,2.3
	c0,0.9,0.3,1.4,0.9,1.4c0.4,0,0.8-0.3,1.2-0.8s0.8-1.4,1.1-2.4C142.5,14.3,142.7,13.5,142.7,12.9z"/>
<g>
	
		<linearGradient id="SVGID_3_" gradientUnits="userSpaceOnUse" x1="152.984" y1="11.0537" x2="152.984" y2="15.0723" gradientTransform="matrix(1 0 0 -1 0 24)">
		<stop  offset="4.049120e-07" style="stop-color:#00FB00"/>
		<stop  offset="0.1883" style="stop-color:#0AF600"/>
		<stop  offset="0.8436" style="stop-color:#FF7101"/>
	</linearGradient>
	<path class="st2" d="M150.4,8.9h6.5l-1.4,4H149L150.4,8.9z"/>
	
		<linearGradient id="SVGID_4_" gradientUnits="userSpaceOnUse" x1="161.484" y1="1.7377" x2="161.484" y2="23.2377" gradientTransform="matrix(1 0 0 -1 0 24)">
		<stop  offset="4.049120e-07" style="stop-color:#00FB00"/>
		<stop  offset="0.1883" style="stop-color:#0AF600"/>
		<stop  offset="0.8436" style="stop-color:#FF7101"/>
	</linearGradient>
	<path class="st3" d="M169.6,0.7l-1.1,3.4l-5,5.1c0.8,0.2,1.3,0.6,1.7,1.2c0.4,0.6,0.6,1.4,0.6,2.3c0,1-0.2,2.1-0.6,3.3
		c-0.7,2-1.6,3.5-2.8,4.6s-2.6,1.6-4.1,1.6c-1.4,0-2.6-0.4-3.4-1.2c-0.8-0.8-1.4-2-1.6-3.5l3.8-1.5c0.3,1.6,0.8,2.5,1.5,2.5
		c0.9,0,1.7-1,2.3-3c0.3-0.9,0.4-1.6,0.4-2.2c0-0.8-0.3-1.2-0.8-1.2c-0.4,0-0.8,0.2-1.2,0.7l-1.9-2.3l6-5.7h-5.2l1.3-3.9h10.1V0.7z"
		/>
	
		<linearGradient id="SVGID_5_" gradientUnits="userSpaceOnUse" x1="172.384" y1="2.1243" x2="172.384" y2="23.2568" gradientTransform="matrix(1 0 0 -1 0 24)">
		<stop  offset="4.049120e-07" style="stop-color:#00FB00"/>
		<stop  offset="0.1883" style="stop-color:#0AF600"/>
		<stop  offset="0.8436" style="stop-color:#FF7101"/>
	</linearGradient>
	<path class="st4" d="M168.7,4.5l5.6-3.7h3.8l-7,21.1h-4.5l5.2-15.8l-2,1.3L168.7,4.5z"/>
</g>
<linearGradient id="SVGID_6_" gradientUnits="userSpaceOnUse" x1="18.115" y1="22.7287" x2="4.8865" y2="-0.1839">
	<stop  offset="4.049120e-07" style="stop-color:#00FB00"/>
	<stop  offset="0.1883" style="stop-color:#0AF600"/>
	<stop  offset="0.8436" style="stop-color:#FF7101"/>
</linearGradient>
<path class="st5" d="M22.3,5.3c0-0.5,0-1.1-0.1-1.4c-0.1-0.4-0.2-0.8-0.4-1.2c-0.4-0.8-1.1-1.4-1.8-1.8c-0.4-0.2-0.8-0.3-1.2-0.4
	c-0.3-0.1-0.9-0.1-1.4-0.1c-0.2,0-0.4,0-0.6,0H6.2c-0.1,0-0.4,0-0.6,0c-0.5,0-1.1,0.1-1.4,0.1C3.8,0.6,3.3,0.7,3,0.9
	c-0.8,0.4-1.4,1-1.8,1.8C1,3.1,0.9,3.5,0.7,3.9C0.7,4.2,0.6,4.8,0.6,5.3c0,0.2,0,0.4,0,0.6v10.7c0,0.1,0,0.4,0,0.6
	c0,0.5,0.1,1.1,0.1,1.4C0.8,19,1,19.4,1.2,19.8c0.4,0.8,1.1,1.4,1.8,1.8c0.4,0.2,0.8,0.3,1.2,0.4c0.3,0.1,0.9,0.1,1.4,0.1
	c0.2,0,0.4,0,0.6,0h10.7c0.1,0,0.4,0,0.6,0c0.5,0,1.1,0,1.4-0.1c0.4-0.1,0.8-0.2,1.2-0.4c0.8-0.4,1.4-1.1,1.8-1.8
	c0.2-0.4,0.3-0.8,0.4-1.2c0.1-0.3,0.1-0.9,0.1-1.4c0-0.2,0-0.4,0-0.6V5.9C22.4,5.8,22.3,5.5,22.3,5.3z M5.7,19.5l-0.4-1.2
	c-0.1-0.3-0.1-0.5-0.1-0.6c0,0.1-0.1,0.2-0.2,0.5l-0.4,1.2H3.6L4.5,17l-0.8-2.3h1.2l0.3,0.9c0.1,0.3,0.1,0.5,0.1,0.6
	c0-0.1,0.1-0.3,0.1-0.6l0.3-0.9h1.1L6,17l0.9,2.6H5.7z M7.9,16.1c0.1,0.1,0.2,0.2,0.3,0.3l0.3,0.3c0.3,0.3,0.5,0.5,0.6,0.7
	c0.1,0.2,0.2,0.5,0.2,0.8c0,0.2-0.1,0.5-0.2,0.7c-0.1,0.2-0.3,0.4-0.5,0.5c-0.2,0.1-0.4,0.2-0.7,0.2c-0.3,0-0.6-0.1-0.9-0.3
	C7,19,6.8,18.8,6.6,18.3l0.9-0.4c0.1,0.3,0.2,0.4,0.3,0.6c0.1,0.1,0.2,0.2,0.3,0.2c0.1,0,0.1,0,0.2-0.1c0-0.1,0.1-0.2,0.1-0.3
	c0-0.1,0-0.2-0.1-0.4c-0.1-0.1-0.2-0.2-0.3-0.4l-0.2-0.1c-0.2-0.2-0.4-0.4-0.5-0.5c-0.1-0.1-0.2-0.3-0.3-0.4
	c-0.1-0.2-0.1-0.3-0.1-0.5c0-0.2,0.1-0.4,0.2-0.6s0.2-0.3,0.4-0.5c0.2-0.1,0.4-0.2,0.6-0.2c0.3,0,0.6,0.1,0.9,0.3
	c0.2,0.2,0.4,0.5,0.5,0.9l-0.9,0.4c-0.1-0.2-0.2-0.4-0.3-0.5c-0.1-0.1-0.2-0.1-0.3-0.1c-0.1,0-0.1,0-0.2,0.1c0,0.1-0.1,0.1-0.1,0.2
	S7.8,16,7.9,16.1z M12.1,17.3h-1.8v-1h1.8V17.3z M12.2,12.2c0,0-0.1,0-0.1-0.1c0,0.1,0,0.1,0,0.2v0c-0.1,0.2-0.1,0.5-0.2,0.5
	C11.6,13,11.3,13,11,12.8c-0.1,0-0.2,0-0.3-0.1c-0.1,0-0.2-0.1-0.2-0.2c-0.1-0.1-0.2-0.2-0.3-0.4c0,0.1-0.1,0.2-0.1,0.3
	c-0.1,0.3-0.3,0.4-0.6,0.2c-0.1-0.1-0.2-0.1-0.4-0.2c-0.1-0.1-0.3-0.1-0.4-0.2c0,0.2,0,0.3-0.1,0.5c-0.1,0.4-0.1,0.8-0.2,1.2
	c0,0.2-0.1,0.2-0.3,0.1C8.1,14.1,8.1,14,8,14c-0.6-0.4-0.6-1-0.4-1.5c0-0.1,0.1-0.2,0.1-0.3c0-0.4,0.2-0.8,0.4-1.2
	c0.1-0.2,0.1-0.3,0-0.5S7.9,10.2,7.9,10c-0.1-0.2-0.1-0.4,0-0.6c0,0,0-0.1,0-0.1c0-0.2,0-0.4,0.2-0.4c0.2,0,0.3-0.1,0.5-0.1
	C9.2,8.7,9.6,8.3,9.8,8C9.7,7.7,9.6,7.4,9.6,7.1C9.5,6.8,9.5,6.8,9.2,6.9C8.7,7,8.2,6.8,7.9,6.5C7.7,6.3,7.5,5.9,7.3,5.7
	C7.2,5.5,7.4,5.3,7.5,5c0-0.1-0.1-0.2-0.1-0.4c0,0-0.1,0-0.2,0S7,4.6,7,4.6c0,0,0-0.1,0-0.2C7.1,4.2,7,3.7,6.9,3.5
	C6.8,3.5,6.8,3.3,6.8,3.2c0-0.1,0.2-0.1,0.3-0.1c0.2,0,0.5,0,0.7,0.1C8.1,3.4,8.4,3.6,8.5,4c0.1,0,0.3,0,0.4,0
	C9,3.9,9.1,3.8,9.3,3.6C9.4,3.4,9.7,3.5,10,3.5c0.3,0,0.4,0.2,0.5,0.4c0,0.1,0.2,0.1,0.3,0c0.4-0.2,0.5-0.1,0.6,0.3
	c0.1,0.3,0.3,0.6,0.5,0.9c0,0,0,0,0.1,0.1c0.3,0.1,0.4,0.3,0.4,0.5c0,0,0,0.1,0.1,0.2c0-0.1,0-0.1,0-0.1c0-0.1,0.1-0.4,0.1-0.4
	c0.2,0,0.4,0,0.6,0c0,0,0.1,0.1,0.1,0.2c0.1,1.2,0.1,2.4,0.2,3.6c0,0.4,0,0.8,0.1,1.1c0.3,0.1,0.5-0.1,0.8-0.2
	c0.2-0.1,0.4-0.1,0.4,0.1c0,0.2,0.1,0.2,0.2,0.2c1.1,0,2.1,0,3.2,0c0.1,0,0.1,0,0.3,0c-0.3,0.6-0.1,1.1-0.2,1.7
	c0,0.2-0.1,0.3-0.3,0.3c-1.8,0-3.5,0-5.3,0C12.5,12.4,12.3,12.3,12.2,12.2z M14.2,18.1c0,0.2,0.1,0.4,0.1,0.5
	c0.1,0.1,0.1,0.1,0.3,0.1c0.1,0,0.2,0,0.2-0.1c0.1-0.1,0.1-0.3,0.2-0.5l0.9,0.4c-0.2,0.8-0.7,1.2-1.4,1.2c-0.5,0-0.9-0.2-1.2-0.6
	c-0.3-0.4-0.4-1.1-0.4-1.8s0.1-1.4,0.4-1.8c0.3-0.4,0.6-0.6,1.2-0.6c0.7,0,1.1,0.4,1.4,1.2l-0.9,0.4c-0.1-0.3-0.2-0.4-0.2-0.5
	c-0.1-0.1-0.1-0.1-0.2-0.1c-0.1,0-0.2,0-0.3,0.1s-0.1,0.3-0.1,0.5c0,0.2,0,0.5,0,1C14.2,17.5,14.2,17.9,14.2,18.1z M19,19.5h-1.1
	v-2.1h-0.7v2.1h-1.1v-4.8h1.1v1.8h0.7v-1.8H19V19.5z"/>
</svg>
