<?xml version="1.0" encoding="utf-8"?>
<!-- Generator: Adobe Illustrator 23.0.6, SVG Export Plug-In . SVG Version: 6.00 Build 0)  -->
<svg version="1.1" id="Layer_1" xmlns="http://www.w3.org/2000/svg" xmlns:xlink="http://www.w3.org/1999/xlink" x="0px" y="0px"
	 viewBox="0 0 16 16" style="enable-background:new 0 0 16 16;" xml:space="preserve">
<style type="text/css">
	.st0{fill:url(#SVGID_1_);}
	.st1{enable-background:new    ;}
	.st2{fill:#FFFFFF;}
</style>
<g>
	<g>
		<linearGradient id="SVGID_1_" gradientUnits="userSpaceOnUse" x1="8" y1="0.625" x2="8" y2="15.375">
			<stop  offset="0" style="stop-color:#61FD7D"/>
			<stop  offset="1" style="stop-color:#2BB826"/>
		</linearGradient>
		<circle class="st0" cx="8" cy="8" r="7.4"/>
	</g>
</g>
<g class="st1">
	<path class="st2" d="M1.6,10.2l1.5-2.5L3.1,5.8H4l0,0.8c0,0.3,0,0.5,0,0.5C4,7,4.1,6.9,4.2,6.6l0.5-0.9h1L4.3,8l0.1,2.2H3.6l0-1.1
		c0-0.3,0-0.5,0-0.5c0,0.1-0.1,0.2-0.2,0.5l-0.7,1.2H1.6z"/>
	<path class="st2" d="M5,10C4.8,9.8,4.7,9.5,4.6,9.2l0.8-0.4C5.4,9,5.5,9.2,5.6,9.3c0.1,0.1,0.1,0.2,0.2,0.2c0.1,0,0.1,0,0.2-0.1
		C6,9.3,6,9.2,6,9C6,8.9,6,8.7,5.9,8.5L5.7,8.2C5.6,7.9,5.5,7.7,5.4,7.5C5.4,7.4,5.3,7.2,5.3,7c0-0.2,0.1-0.5,0.2-0.7
		C5.6,6.2,5.7,6,5.9,5.9c0.2-0.1,0.4-0.2,0.6-0.2C6.8,5.7,7,5.8,7.2,6s0.3,0.4,0.3,0.8L6.8,7.1c0-0.2-0.1-0.4-0.1-0.5
		c0-0.1-0.1-0.1-0.2-0.1c-0.1,0-0.1,0-0.2,0.1c0,0.1-0.1,0.1-0.1,0.2c0,0.1,0.1,0.3,0.2,0.6l0.2,0.3C6.7,8,6.8,8.1,6.8,8.3
		c0.1,0.2,0.1,0.3,0.1,0.5c0,0.3-0.1,0.5-0.2,0.7C6.6,9.8,6.5,10,6.3,10.1c-0.2,0.1-0.4,0.2-0.6,0.2C5.4,10.3,5.1,10.2,5,10z"/>
	<path class="st2" d="M7.4,7.5h1.3L8.4,8.3H7.1L7.4,7.5z"/>
	<path class="st2" d="M8.8,10C8.6,9.8,8.5,9.5,8.5,9.1c0-0.4,0.1-0.8,0.2-1.3C9,7.1,9.2,6.6,9.5,6.2c0.3-0.3,0.6-0.5,1-0.5
		c0.3,0,0.6,0.1,0.7,0.3c0.2,0.2,0.2,0.5,0.2,0.8l-0.8,0.3c0-0.2,0-0.4-0.1-0.5c0-0.1-0.1-0.2-0.2-0.2c-0.1,0-0.2,0.1-0.4,0.3
		C10,7,9.8,7.4,9.7,7.9c-0.2,0.5-0.3,1-0.3,1.2c0,0.2,0.1,0.3,0.2,0.3c0.1,0,0.2,0,0.2-0.1c0.1-0.1,0.2-0.3,0.3-0.5l0.7,0.3
		c-0.1,0.3-0.3,0.6-0.6,0.8c-0.2,0.2-0.5,0.3-0.8,0.3C9.1,10.3,8.9,10.2,8.8,10z"/>
	<path class="st2" d="M13.5,5.8h0.9L13,10.2h-0.9l0.6-1.9h-0.6l-0.6,1.9h-0.9l1.4-4.4h0.9l-0.5,1.7H13L13.5,5.8z"/>
</g>
</svg>
