<?xml version="1.0" encoding="utf-8"?>
<!-- Generator: Adobe Illustrator 23.0.6, SVG Export Plug-In . SVG Version: 6.00 Build 0)  -->
<svg version="1.1" id="Layer_1" xmlns="http://www.w3.org/2000/svg" xmlns:xlink="http://www.w3.org/1999/xlink" x="0px" y="0px"
	 viewBox="0 0 153.1 22.4" style="enable-background:new 0 0 153.1 22.4;" xml:space="preserve">
<style type="text/css">
	.st0{fill:url(#SVGID_1_);}
	.st1{fill:url(#SVGID_2_);}
	.st2{fill:url(#SVGID_3_);}
	.st3{fill:url(#SVGID_4_);}
	.st4{fill:url(#SVGID_5_);}
</style>
<g>
	<path d="M-0.2,21.7l8-11.9L7.3,0.6h4.6l0.1,3.8c0,1.4,0,2.3-0.1,2.6c0.2-0.4,0.6-1.2,1.2-2.3l2.3-4.1h5.3l-7.2,10.7l0.6,10.4H9.7
		l-0.1-5.2c0-1.4,0-2.3,0.1-2.6c-0.2,0.4-0.6,1.1-1.2,2.2L5,21.7H-0.2z"/>
	<path d="M16.9,20.6c-0.9-1-1.5-2.3-1.7-3.9l4-1.7c0.3,1.2,0.6,2,0.9,2.6c0.3,0.5,0.7,0.8,1.1,0.8c0.4,0,0.7-0.2,0.9-0.6
		c0.2-0.4,0.3-0.9,0.3-1.5c0-0.9-0.3-1.8-0.8-2.8l-0.8-1.5c-0.6-1.1-1.1-2.1-1.4-2.9c-0.3-0.8-0.5-1.6-0.5-2.4
		c0-1.1,0.3-2.2,0.8-3.1c0.5-1,1.3-1.7,2.2-2.3c0.9-0.6,2-0.9,3.1-0.9c1.5,0,2.7,0.4,3.5,1.3c0.8,0.9,1.4,2.1,1.7,3.7l-4,1.6
		c-0.2-1-0.4-1.8-0.6-2.2C25.5,4.3,25.1,4,24.7,4c-0.4,0-0.7,0.2-0.9,0.5c-0.2,0.3-0.3,0.7-0.3,1.1c0,0.7,0.3,1.6,1,2.8l0.8,1.5
		c0.5,1,1,1.9,1.2,2.7c0.3,0.8,0.4,1.7,0.4,2.5c0,1.2-0.3,2.3-0.9,3.4c-0.6,1.1-1.4,1.9-2.3,2.6c-1,0.6-2.1,1-3.3,1
		C19,22.1,17.8,21.6,16.9,20.6z"/>
	<path d="M29.6,8.8h6.5l-1.4,4h-6.5L29.6,8.8z"/>
	<path d="M36.5,20.5c-0.8-1-1.2-2.4-1.2-4.1c0-1.9,0.4-4,1.2-6.4c1.1-3.3,2.4-5.8,3.9-7.4C42,1,43.7,0.2,45.7,0.2
		c1.6,0,2.8,0.5,3.6,1.4s1.2,2.2,1.2,3.9l-4,1.5c-0.1-1-0.2-1.7-0.4-2.2C45.9,4.3,45.6,4,45.2,4c-0.6,0-1.2,0.5-1.8,1.5
		c-0.6,1-1.3,2.8-2.2,5.3c-0.9,2.6-1.3,4.5-1.3,5.8c0,1,0.3,1.5,0.9,1.5c0.4,0,0.8-0.2,1.2-0.6c0.4-0.4,0.9-1.2,1.6-2.3l3.5,1.7
		c-0.8,1.5-1.7,2.7-2.8,3.7c-1.1,1-2.5,1.5-4,1.5C38.6,22,37.3,21.5,36.5,20.5z"/>
	<path d="M60.8,0.6h4.7l-7,21.1h-4.7l3-9.1h-3.1l-3,9.1H46l7-21.1h4.7l-2.6,7.9h3.1L60.8,0.6z"/>
</g>
<path d="M76.3,16c-0.6,0.6-1.1,1.3-1.5,2h6.5L80,21.9H68.6l0.7-2.1c0.5-1.4,1-2.6,1.5-3.6c0.6-1,1.3-1.8,2.1-2.6
	c0.8-0.8,1.9-1.6,3.2-2.6c1.5-1.1,2.7-2.1,3.6-3C80.6,7.1,81,6.1,81,5.2c0-0.7-0.3-1-0.9-1c-0.5,0-1,0.2-1.5,0.7
	c-0.6,0.5-1.2,1.3-2,2.3l-3.3-1.9c1-1.7,2.2-2.9,3.4-3.7c1.3-0.8,2.6-1.2,3.9-1.2c1.5,0,2.6,0.4,3.5,1.2c0.9,0.8,1.3,1.9,1.3,3.2
	c0,1.3-0.3,2.5-0.9,3.5s-1.3,2-2.3,2.8c-1,0.8-2.2,1.8-3.8,2.9C77.7,14.8,76.9,15.4,76.3,16z"/>
<path d="M84.7,20.8c-0.8-0.9-1.1-2.2-1.1-3.8c0-1.8,0.4-4,1.3-6.7c1-3.2,2.2-5.6,3.7-7.3c1.4-1.7,3.1-2.6,4.9-2.6
	c1.6,0,2.8,0.5,3.6,1.4c0.8,0.9,1.1,2.3,1.1,3.9c0,1.8-0.4,4-1.3,6.6c-1,3.2-2.2,5.6-3.7,7.3c-1.4,1.7-3.1,2.6-4.9,2.6
	C86.6,22.2,85.4,21.8,84.7,20.8z M90.3,16.9c0.6-1,1.2-2.8,2.1-5.3c0.5-1.5,0.8-2.7,1.1-3.7c0.3-1,0.4-1.8,0.4-2.5
	c0-0.8-0.2-1.2-0.7-1.2c-0.5,0-1,0.5-1.6,1.6c-0.6,1-1.2,2.8-2.1,5.3c-0.5,1.5-0.8,2.7-1.1,3.7c-0.3,1-0.4,1.8-0.4,2.4
	c0,0.8,0.2,1.2,0.7,1.2C89.2,18.4,89.7,17.9,90.3,16.9z"/>
<linearGradient id="SVGID_1_" gradientUnits="userSpaceOnUse" x1="107.5222" y1="20.8702" x2="97.9088" y2="4.2192">
	<stop  offset="4.049120e-07" style="stop-color:#00FB00"/>
	<stop  offset="0.1883" style="stop-color:#0AF600"/>
	<stop  offset="0.8436" style="stop-color:#FF7101"/>
</linearGradient>
<path class="st0" d="M102,16c-0.6,0.6-1.1,1.3-1.5,2h6.5l-1.3,3.8H94.4l0.7-2.1c0.5-1.4,1-2.6,1.5-3.6c0.6-1,1.3-1.8,2.1-2.6
	c0.8-0.8,1.9-1.6,3.2-2.6c1.5-1.1,2.7-2.1,3.6-3c0.9-0.9,1.3-1.8,1.3-2.8c0-0.7-0.3-1-0.9-1c-0.5,0-1,0.2-1.5,0.7
	c-0.6,0.5-1.2,1.3-2,2.3L99,5.3c1-1.7,2.2-2.9,3.4-3.7c1.3-0.8,2.6-1.2,3.9-1.2c1.5,0,2.6,0.4,3.5,1.2c0.9,0.8,1.3,1.9,1.3,3.2
	c0,1.3-0.3,2.5-0.9,3.5s-1.3,2-2.3,2.8c-1,0.8-2.2,1.8-3.8,2.9C103.4,14.8,102.6,15.4,102,16z"/>
<linearGradient id="SVGID_2_" gradientUnits="userSpaceOnUse" x1="120.9344" y1="18.7187" x2="112.4279" y2="3.985">
	<stop  offset="4.049120e-07" style="stop-color:#00FB00"/>
	<stop  offset="0.1883" style="stop-color:#0AF600"/>
	<stop  offset="0.8436" style="stop-color:#FF7101"/>
</linearGradient>
<path class="st1" d="M123.2,0.8l-2.4,2.5c-1.9,2-3.4,3.8-4.6,5.5c0.6-0.4,1.2-0.6,1.8-0.6c1.1,0,1.8,0.4,2.4,1.2
	c0.5,0.8,0.8,1.8,0.8,3c0,1-0.2,2.1-0.5,3.2c-0.7,2.1-1.7,3.7-3,4.9c-1.4,1.2-2.8,1.8-4.4,1.8c-1.6,0-2.8-0.5-3.6-1.4
	s-1.2-2.1-1.2-3.7c0-1.1,0.2-2.3,0.6-3.6c0.7-2.1,1.7-4.1,3.2-6.1c1.4-2,3.1-3.9,4.9-5.8l1-1L123.2,0.8L123.2,0.8z M116.5,12.9
	c0-0.8-0.3-1.3-0.8-1.3c-0.4,0-0.8,0.3-1.3,0.8c-0.4,0.5-0.8,1.3-1.1,2.3c-0.3,0.8-0.4,1.6-0.4,2.3c0,0.9,0.3,1.4,0.9,1.4
	c0.4,0,0.8-0.3,1.2-0.8s0.8-1.4,1.1-2.4C116.3,14.3,116.5,13.5,116.5,12.9z"/>
<g>
	<linearGradient id="SVGID_3_" gradientUnits="userSpaceOnUse" x1="126.816" y1="12.9463" x2="126.816" y2="8.9277">
		<stop  offset="4.049120e-07" style="stop-color:#00FB00"/>
		<stop  offset="0.1883" style="stop-color:#0AF600"/>
		<stop  offset="0.8436" style="stop-color:#FF7101"/>
	</linearGradient>
	<path class="st2" d="M124.2,8.9h6.5l-1.4,4h-6.5L124.2,8.9z"/>
	<linearGradient id="SVGID_4_" gradientUnits="userSpaceOnUse" x1="135.1053" y1="22.2623" x2="135.1053" y2="0.7432">
		<stop  offset="4.049120e-07" style="stop-color:#00FB00"/>
		<stop  offset="0.1883" style="stop-color:#0AF600"/>
		<stop  offset="0.8436" style="stop-color:#FF7101"/>
	</linearGradient>
	<path class="st3" d="M143.4,0.7l-1.1,3.4l-5,5.1c0.8,0.2,1.3,0.6,1.7,1.2c0.4,0.6,0.6,1.4,0.6,2.3c0,1-0.2,2.1-0.6,3.3
		c-0.7,2-1.6,3.5-2.8,4.6c-1.2,1.1-2.6,1.6-4.1,1.6c-1.4,0-2.6-0.4-3.4-1.2c-0.8-0.8-1.4-2-1.6-3.5l3.8-1.5c0.3,1.6,0.8,2.5,1.5,2.5
		c0.9,0,1.7-1,2.3-3c0.3-0.9,0.4-1.6,0.4-2.2c0-0.8-0.3-1.2-0.8-1.2c-0.4,0-0.8,0.2-1.2,0.7l-1.9-2.3l6-5.7h-5.2l1.3-3.9H143.4z"/>
	<linearGradient id="SVGID_5_" gradientUnits="userSpaceOnUse" x1="146.1486" y1="21.8757" x2="146.1486" y2="0.7432">
		<stop  offset="4.049120e-07" style="stop-color:#00FB00"/>
		<stop  offset="0.1883" style="stop-color:#0AF600"/>
		<stop  offset="0.8436" style="stop-color:#FF7101"/>
	</linearGradient>
	<path class="st4" d="M142.5,4.5l5.6-3.7h3.8l-7,21.1h-4.5l5.2-15.8l-2,1.3L142.5,4.5z"/>
</g>
</svg>
